<svg width="294" height="58" viewBox="0 0 294 58" fill="none" xmlns="http://www.w3.org/2000/svg">
<path d="M37.32 30.18H40.26V45.9C38.42 47.66 36.18 49 33.54 49.92C30.94 50.84 28.18 51.3 25.26 51.3C21.1 51.3 17.34 50.38 13.98 48.54C10.66 46.7 8.04 44.16 6.12 40.92C4.24 37.68 3.3 34.04 3.3 30C3.3 25.96 4.24 22.32 6.12 19.08C8.04 15.84 10.66 13.3 13.98 11.46C17.34 9.62 21.12 8.7 25.32 8.7C28.4 8.7 31.22 9.2 33.78 10.2C36.38 11.16 38.6 12.58 40.44 14.46L38.52 16.5C36.76 14.74 34.78 13.48 32.58 12.72C30.42 11.92 28.02 11.52 25.38 11.52C21.78 11.52 18.52 12.32 15.6 13.92C12.72 15.52 10.46 17.74 8.82 20.58C7.18 23.38 6.36 26.52 6.36 30C6.36 33.44 7.18 36.58 8.82 39.42C10.5 42.22 12.78 44.44 15.66 46.08C18.54 47.68 21.78 48.48 25.38 48.48C30.18 48.48 34.16 47.2 37.32 44.64V30.18ZM82.7063 48.24V51H53.7263V9H81.8063V11.76H56.7863V28.32H79.1663V31.02H56.7863V48.24H82.7063ZM151.904 33.54H167.324V36.24H151.904V33.54ZM196.825 11.76V29.7H219.205V32.46H196.825V51H193.765V9H221.845V11.76H196.825ZM277.847 9H280.907V51H277.847V9Z" fill="white"/>
<path d="M248.806 35.9817L236.337 10.3867L229 9.26038L241.169 33.7689L248.806 35.9817Z" stroke="white" stroke-width="0.7"/>
<path d="M255.178 38.3069C255.178 38.4967 255.079 38.7176 254.811 38.9588C254.544 39.1999 254.138 39.4332 253.606 39.6362C252.545 40.0413 251.055 40.2992 249.392 40.2992C247.729 40.2992 246.24 40.0413 245.178 39.6362C244.646 39.4332 244.24 39.1999 243.973 38.9588C243.706 38.7176 243.606 38.4967 243.606 38.3069C243.606 38.117 243.706 37.8961 243.973 37.6549C244.24 37.4138 244.646 37.1806 245.178 36.9775C246.24 36.5724 247.729 36.3145 249.392 36.3145C251.055 36.3145 252.545 36.5724 253.606 36.9775C254.138 37.1806 254.544 37.4138 254.811 37.6549C255.079 37.8961 255.178 38.117 255.178 38.3069Z" stroke="white" stroke-width="0.7"/>
<path d="M256.761 50.8706C256.761 50.9769 256.676 51.1657 256.301 51.4041C255.943 51.6318 255.402 51.85 254.702 52.0383C253.306 52.4136 251.359 52.65 249.194 52.65C247.029 52.65 245.082 52.4136 243.687 52.0383C242.986 51.85 242.445 51.6318 242.087 51.4041C241.712 51.1657 241.627 50.9769 241.627 50.8706C241.627 50.7642 241.712 50.5754 242.087 50.337C242.445 50.1093 242.986 49.8911 243.687 49.7028C245.082 49.3275 247.029 49.0911 249.194 49.0911C251.359 49.0911 253.306 49.3275 254.702 49.7028C255.402 49.8911 255.943 50.1093 256.301 50.337C256.676 50.5754 256.761 50.7642 256.761 50.8706Z" stroke="white" stroke-width="0.7"/>
<path d="M255.178 48.5282C255.178 48.7181 255.079 48.939 254.811 49.1801C254.544 49.4213 254.138 49.6545 253.606 49.8575C252.545 50.2627 251.055 50.5206 249.392 50.5206C247.729 50.5206 246.24 50.2627 245.178 49.8575C244.646 49.6545 244.24 49.4213 243.973 49.1801C243.706 48.939 243.606 48.7181 243.606 48.5282C243.606 48.3384 243.706 48.1175 243.973 47.8763C244.24 47.6351 244.646 47.4019 245.178 47.1989C246.24 46.7937 247.729 46.5358 249.392 46.5358C251.055 46.5358 252.545 46.7937 253.606 47.1989C254.138 47.4019 254.544 47.6351 254.811 47.8763C255.079 48.1175 255.178 48.3384 255.178 48.5282Z" stroke="white" stroke-width="0.7"/>
<path d="M255.178 45.9729C255.178 46.1627 255.079 46.3836 254.811 46.6248C254.544 46.8659 254.138 47.0992 253.606 47.3022C252.545 47.7073 251.055 47.9652 249.392 47.9652C247.729 47.9652 246.24 47.7073 245.178 47.3022C244.646 47.0992 244.24 46.8659 243.973 46.6248C243.706 46.3836 243.606 46.1627 243.606 45.9729C243.606 45.783 243.706 45.5621 243.973 45.3209C244.24 45.0798 244.646 44.8466 245.178 44.6435C246.24 44.2384 247.729 43.9805 249.392 43.9805C251.055 43.9805 252.545 44.2384 253.606 44.6435C254.138 44.8466 254.544 45.0798 254.811 45.3209C255.079 45.5621 255.178 45.783 255.178 45.9729Z" stroke="white" stroke-width="0.7"/>
<path d="M255.178 40.8622C255.178 41.0521 255.079 41.273 254.811 41.5141C254.544 41.7553 254.138 41.9885 253.606 42.1915C252.545 42.5967 251.055 42.8546 249.392 42.8546C247.729 42.8546 246.24 42.5967 245.178 42.1915C244.646 41.9885 244.24 41.7553 243.973 41.5141C243.706 41.273 243.606 41.0521 243.606 40.8622C243.606 40.6724 243.706 40.4515 243.973 40.2103C244.24 39.9691 244.646 39.7359 245.178 39.5329C246.24 39.1277 247.729 38.8698 249.392 38.8698C251.055 38.8698 252.545 39.1277 253.606 39.5329C254.138 39.7359 254.544 39.9691 254.811 40.2103C255.079 40.4515 255.178 40.6724 255.178 40.8622Z" stroke="white" stroke-width="0.7"/>
<path d="M255.178 43.4175C255.178 43.6074 255.079 43.8283 254.811 44.0695C254.544 44.3106 254.138 44.5438 253.606 44.7469C252.545 45.152 251.055 45.4099 249.392 45.4099C247.729 45.4099 246.24 45.152 245.178 44.7469C244.646 44.5438 244.24 44.3106 243.973 44.0695C243.706 43.8283 243.606 43.6074 243.606 43.4175C243.606 43.2277 243.706 43.0068 243.973 42.7656C244.24 42.5245 244.646 42.2912 245.178 42.0882C246.24 41.6831 247.729 41.4252 249.392 41.4252C251.055 41.4252 252.545 41.6831 253.606 42.0882C254.138 42.2912 254.544 42.5245 254.811 42.7656C255.079 43.0068 255.178 43.2277 255.178 43.4175Z" stroke="white" stroke-width="0.7"/>
<line y1="-0.35" x2="27.5819" y2="-0.35" transform="matrix(0.444924 0.895568 -0.8669 0.498482 230.984 9.98535)" stroke="white" stroke-width="0.7"/>
<line y1="-0.35" x2="27.9993" y2="-0.35" transform="matrix(0.444924 0.895568 -0.8669 0.498482 233.755 9.98535)" stroke="white" stroke-width="0.7"/>
<line y1="-0.35" x2="27.9993" y2="-0.35" transform="matrix(0.444924 0.895568 -0.8669 0.498482 232.172 9.55948)" stroke="white" stroke-width="0.7"/>
<line y1="-0.35" x2="10.4412" y2="-0.35" transform="matrix(0.87202 0.489471 -0.436355 0.899775 232.172 15.5219)" stroke="white" stroke-width="0.7"/>
<line y1="-0.35" x2="9.94624" y2="-0.35" transform="matrix(0.87119 0.490945 -0.437756 0.899094 236.131 23.6138)" stroke="white" stroke-width="0.7"/>
<path d="M249.194 36.1341L261.663 10.5391L269 9.41275L256.831 33.9213L249.194 36.1341Z" stroke="white" stroke-width="0.7"/>
<line y1="-0.35" x2="27.5819" y2="-0.35" transform="matrix(-0.444924 0.895568 0.8669 0.498482 267.016 10.1378)" stroke="white" stroke-width="0.7"/>
<line y1="-0.35" x2="27.9993" y2="-0.35" transform="matrix(-0.444924 0.895568 0.8669 0.498482 264.245 10.1378)" stroke="white" stroke-width="0.7"/>
<line y1="-0.35" x2="28" y2="-0.35" transform="matrix(-0.444924 0.895568 0.8669 0.498482 265.83 9.70999)" stroke="white" stroke-width="0.7"/>
<line y1="-0.35" x2="10.4412" y2="-0.35" transform="matrix(-0.87202 0.489471 0.436355 0.899775 265.828 15.6743)" stroke="white" stroke-width="0.7"/>
<line y1="-0.35" x2="9.94624" y2="-0.35" transform="matrix(-0.87119 0.490945 0.437756 0.899094 261.869 23.7661)" stroke="white" stroke-width="0.7"/>
<path fill-rule="evenodd" clip-rule="evenodd" d="M100.271 9.34505C94.313 12.1551 91.597 14.9201 88.855 20.9681C85.257 28.905 87.013 39.241 93.083 45.85C96.385 49.446 104.62 52.948 109.771 52.948C114.922 52.948 123.157 49.446 126.459 45.85C129.868 42.138 132.726 34.912 132.739 29.9681C132.753 24.817 129.261 16.594 125.653 13.28C121.941 9.87105 114.715 7.01305 109.771 7.00005C107.101 6.99205 103.238 7.94605 100.271 9.34505ZM118.398 10.886C122.441 12.722 124.897 14.9681 122.861 14.9681C122.296 14.9681 122.093 15.6431 122.409 16.4681C122.726 17.293 122.487 17.9681 121.878 17.9681C121.269 17.9681 120.771 17.4911 120.771 16.909C120.771 16.327 120.299 16.142 119.722 16.498C118.996 16.947 119.009 17.55 119.764 18.46C120.364 19.182 120.498 19.93 120.063 20.121C119.627 20.312 118.395 22.1891 117.323 24.2931C115.011 28.8331 116.011 31.412 120.147 31.569C123.538 31.698 123.543 31.7041 124.15 36.7421C124.431 39.0741 124.955 41.457 125.314 42.038C126.266 43.577 122.871 46.975 118.271 49.087C104.929 55.214 88.87 44.9791 88.793 30.3001C88.758 23.6011 89.525 22.6001 92.356 25.6551C94.426 27.8871 99.101 30.9681 100.42 30.9681C100.652 30.9681 100.369 30.0851 99.791 29.0051C99.173 27.8521 98.128 27.277 97.256 27.612C96.322 27.97 95.771 27.5851 95.771 26.5751C95.771 25.6911 96.334 24.899 97.021 24.816C97.709 24.732 98.796 24.613 99.437 24.552C100.079 24.491 102.117 23.0641 103.967 21.3811C105.816 19.6981 107.879 18.5041 108.55 18.7281C110.442 19.3581 109.99 16.266 108.083 15.534C107.055 15.14 106.055 15.497 105.522 16.448C105.041 17.307 104.226 17.749 103.71 17.43C102.243 16.524 102.603 15.2611 104.521 14.5841C105.483 14.2441 106.896 13.684 107.66 13.338C108.6 12.912 108.798 13.1161 108.271 13.9681C107.785 14.7551 107.948 15.0761 108.707 14.8231C109.375 14.6001 109.881 13.979 109.833 13.443C109.713 12.109 105.594 12.0761 103.858 13.3951C102.829 14.1771 102.332 14.1291 102.025 13.2181C101.794 12.5311 101.165 11.9681 100.629 11.9681C100.092 11.9681 99.928 12.413 100.264 12.957C100.631 13.55 100.166 13.673 99.104 13.265C97.682 12.72 98.115 12.2341 101.302 10.8031C106.439 8.49605 113.207 8.52905 118.398 10.886ZM102.771 19.9681C102.771 20.5181 102.573 20.9681 102.33 20.9681C102.087 20.9681 101.611 20.5181 101.271 19.9681C100.931 19.418 101.13 18.9681 101.712 18.9681C102.294 18.9681 102.771 19.418 102.771 19.9681ZM125.038 21.3461C124.702 21.8881 125.137 22.0421 126.034 21.6971C126.909 21.3621 128.163 21.7351 128.82 22.5271C129.818 23.7291 129.498 23.9681 126.893 23.9681C125.176 23.9681 123.771 23.5181 123.771 22.9681C123.771 22.418 123.069 21.9681 122.212 21.9681C121.355 21.9681 120.913 21.5471 121.232 21.0321C121.55 20.5171 122.67 20.16 123.721 20.239C124.772 20.318 125.365 20.8161 125.038 21.3461ZM101.298 31.232C99.313 34.067 99.371 34.9131 101.724 37.4181C102.798 38.5611 103.791 41.192 103.93 43.264C104.07 45.336 104.932 47.709 105.846 48.536C107.355 49.901 107.466 49.824 107.059 47.693C106.794 46.308 107.258 44.809 108.191 44.035C109.06 43.313 109.771 42.151 109.771 41.453C109.771 40.754 110.384 39.947 111.132 39.66C113.31 38.824 113.893 34.9431 111.943 34.2581C111.024 33.9351 109.371 32.904 108.271 31.9681C104.866 29.0701 102.954 28.868 101.298 31.232Z" fill="white"/>
</svg>
